<svg width="38" height="38" xmlns="http://www.w3.org/2000/svg">

 <g>
  <title>background</title>
  <rect fill="none" id="canvas_background" height="402" width="582" y="-1" x="-1"/>
 </g>
 <g>
  <title>Layer 1</title>
  <path fill="#f9f9f9" id="svg_1" d="m19,0.56a18.44,18.44 0 1 0 18.44,18.44a18.461,18.461 0 0 0 -18.44,-18.44z"/>
  <circle id="svg_2" r="1.878" fill="#223342" cy="26.242" cx="19.017"/>
  <path id="svg_3" fill="#223342" d="m19.018,21.95l-0.013,0a1.251,1.251 0 0 1 -1.238,-1.262c0.016,-1.638 1.362,-3.326 2.551,-4.815c0.245,-0.307 0.479,-0.6 0.683,-0.872a1.517,1.517 0 0 0 0.067,-1.61a2.368,2.368 0 0 0 -2,-1.34l0,0c-1.447,0 -2.629,0.87 -2.629,1.9a1.25,1.25 0 0 1 -2.5,0c0,-2.427 2.281,-4.4 5.085,-4.4l0.12,0a4.831,4.831 0 0 1 4.173,2.734a3.975,3.975 0 0 1 -0.317,4.215c-0.218,0.291 -0.468,0.605 -0.73,0.934c-0.795,1 -2,2.5 -2,3.279a1.25,1.25 0 0 1 -1.252,1.237z"/>
 </g>
</svg>