<svg width="128" height="128" xmlns="http://www.w3.org/2000/svg">

 <g>
  <title>background</title>
  <rect fill="none" id="canvas_background" height="402" width="582" y="-1" x="-1"/>
 </g>
 <g>
  <title>Layer 1</title>
  <path fill="#ffffff" id="svg_1" d="m30.043,100.033c-0.512,0 -1.023,-0.195 -1.414,-0.585c-0.781,-0.782 -0.781,-2.048 0,-2.828l12.672,-12.671c0.781,-0.78 2.047,-0.781 2.828,0c0.781,0.78 0.781,2.048 0,2.828l-12.672,12.671c-0.391,0.39 -0.902,0.585 -1.414,0.585z"/>
  <path fill="#ffffff" id="svg_2" d="m85.352,44.725c-0.512,0 -1.023,-0.195 -1.414,-0.586c-0.781,-0.781 -0.781,-2.047 0,-2.828l12.666,-12.667c0.781,-0.782 2.047,-0.782 2.828,0c0.781,0.781 0.781,2.047 0,2.828l-12.666,12.667c-0.391,0.391 -0.903,0.586 -1.414,0.586z"/>
  <path fill="#ffffff" id="svg_3" d="m98.018,100.035c-0.512,0 -1.023,-0.196 -1.414,-0.586l-12.584,-12.584c-0.781,-0.781 -0.781,-2.049 0,-2.828c0.781,-0.782 2.047,-0.782 2.828,0l12.584,12.584c0.781,0.779 0.781,2.047 0,2.828c-0.391,0.39 -0.903,0.586 -1.414,0.586z"/>
  <path fill="#ffffff" id="svg_4" d="m42.791,44.807c-0.512,0 -1.023,-0.196 -1.414,-0.586l-12.748,-12.748c-0.781,-0.781 -0.781,-2.047 0,-2.828c0.781,-0.782 2.047,-0.782 2.828,0l12.748,12.748c0.781,0.78 0.781,2.047 0,2.828c-0.391,0.39 -0.902,0.586 -1.414,0.586z"/>
  <path fill="#ffffff" id="svg_5" d="m64.029,114.178c-13.39,0 -25.977,-5.215 -35.443,-14.684c-19.544,-19.543 -19.545,-51.347 -0.002,-70.894c9.468,-9.468 22.056,-14.682 35.446,-14.682s25.979,5.214 35.447,14.682c19.545,19.545 19.545,51.347 0,70.892c-9.469,9.471 -22.058,14.686 -35.448,14.686zm0.001,-96.26c-12.321,0 -23.905,4.798 -32.618,13.51c-17.983,17.988 -17.982,47.254 0.002,65.238c8.712,8.713 20.294,13.512 32.615,13.512s23.905,-4.799 32.619,-13.513c17.985,-17.986 17.985,-47.251 0,-65.237c-8.712,-8.712 -20.296,-13.51 -32.618,-13.51z"/>
  <path fill="#ffffff" id="svg_6" d="m64.111,96.285c-8.588,0 -16.661,-3.346 -22.732,-9.418c-12.535,-12.537 -12.536,-32.936 -0.002,-45.474c6.073,-6.072 14.147,-9.416 22.736,-9.416s16.662,3.344 22.734,9.416c12.537,12.538 12.538,32.937 0.003,45.471c-6.075,6.075 -14.15,9.421 -22.739,9.421zm0.002,-60.308c-7.521,0 -14.591,2.928 -19.908,8.244c-10.975,10.978 -10.974,28.841 0.002,39.818c5.316,5.318 12.385,8.246 19.904,8.246c7.521,0 14.592,-2.93 19.91,-8.249c10.976,-10.976 10.975,-28.837 -0.002,-39.815c-5.316,-5.316 -12.385,-8.244 -19.906,-8.244z"/>
 </g>
</svg>