<svg width="512" height="512" xmlns="http://www.w3.org/2000/svg">

 <g>
  <title>background</title>
  <rect fill="none" id="canvas_background" height="402" width="582" y="-1" x="-1"/>
 </g>
 <g>
  <title>Layer 1</title>
  <path id="svg_2" stroke-width="20.1478" stroke-miterlimit="10" stroke-linejoin="round" stroke-linecap="round" stroke="#000000" fill="none" d="m262.501,-683.602c-43.863,44.825 -115.773,45.611 -160.598,1.748c-44.853,-43.864 -45.64,-115.777 -1.776,-160.603l162.374,158.855z"/>
  <path id="svg_3" stroke-width="20.1478" stroke-miterlimit="10" stroke-linejoin="round" stroke-linecap="round" stroke="#000000" fill="none" d="m97.884,-685.961l-39.523,86.971l97.337,0l-28.251,-64.019c-9.145,-4.952 -17.766,-11.214 -25.543,-18.845c-1.398,-1.34 -2.709,-2.709 -4.02,-4.107l0,0z"/>
  <line id="svg_4" y2="-769.32" y1="-817.437" x2="186.833" x1="233.871" stroke-width="20.1478" stroke-miterlimit="10" stroke-linejoin="round" stroke-linecap="round" stroke="#000000" fill="none"/>
  <path id="svg_5" stroke-width="20.1478" stroke-miterlimit="10" stroke-linejoin="round" stroke-linecap="round" stroke="#000000" fill="none" d="m467.603,-663.33c-33.377,34.078 -88.046,34.689 -122.151,1.311c-34.106,-33.35 -34.718,-88.048 -1.34,-122.156l123.491,120.845z"/>
  <path id="svg_6" stroke-width="20.1478" stroke-miterlimit="10" stroke-linejoin="round" stroke-linecap="round" stroke="#000000" fill="none" d="m342.393,-665.136l-30.058,66.146l74.037,0l-21.494,-48.699c-6.961,-3.757 -13.515,-8.535 -19.427,-14.33c-1.049,-1.019 -2.068,-2.068 -3.058,-3.117l0,0z"/>
  <line id="svg_7" y2="-728.543" y1="-765.126" x2="410.021" x1="445.817" stroke-width="20.1478" stroke-miterlimit="10" stroke-linejoin="round" stroke-linecap="round" stroke="#000000" fill="none"/>
  <line id="svg_8" y2="-779.776" y1="-779.485" x2="122.524" x1="122.524" stroke-width="20.1478" stroke-miterlimit="10" stroke-linejoin="round" stroke-linecap="round" stroke="#000000" fill="none"/>
  <line id="svg_9" y2="-749.689" y1="-749.428" x2="150.048" x1="150.048" stroke-width="20.1478" stroke-miterlimit="10" stroke-linejoin="round" stroke-linecap="round" stroke="#000000" fill="none"/>
  <line id="svg_10" y2="-722.281" y1="-721.991" x2="178.271" x1="178.271" stroke-width="20.1478" stroke-miterlimit="10" stroke-linejoin="round" stroke-linecap="round" stroke="#000000" fill="none"/>
  <line id="svg_11" y2="-697.583" y1="-697.321" x2="204.367" x1="204.367" stroke-width="20.1478" stroke-miterlimit="10" stroke-linejoin="round" stroke-linecap="round" stroke="#000000" fill="none"/>
  <line id="svg_12" y2="-724.641" y1="-724.378" x2="368.023" x1="368.023" stroke-width="20.1478" stroke-miterlimit="10" stroke-linejoin="round" stroke-linecap="round" stroke="#000000" fill="none"/>
  <line id="svg_13" y2="-693.33" y1="-693.068" x2="400.119" x1="400.119" stroke-width="20.1478" stroke-miterlimit="10" stroke-linejoin="round" stroke-linecap="round" stroke="#000000" fill="none"/>
  <path id="svg_14" stroke-width="20.1478" stroke-miterlimit="10" stroke-linejoin="round" stroke-linecap="round" stroke="#000000" fill="none" d="m409.294,-901.029c28.863,0 52.397,-23.534 52.397,-52.398c0,-28.864 -23.534,-52.398 -52.397,-52.398c-28.864,0 -52.426,23.534 -52.426,52.398c0,28.864 23.562,52.398 52.426,52.398l0,0z"/>
  <line id="svg_15" y2="-598.612" y1="-599.369" x2="496" x1="17.44" stroke-width="20.1478" stroke-miterlimit="10" stroke-linejoin="round" stroke-linecap="round" stroke="#000000" fill="none"/>
  <line id="svg_16" y2="-989.66" y1="-989.398" x2="172.358" x1="172.358" stroke-width="20.1478" stroke-miterlimit="10" stroke-linejoin="round" stroke-linecap="round" stroke="#000000" fill="none"/>
  <line id="svg_17" y2="-990.709" y1="-990.417" x2="71.41" x1="71.41" stroke-width="20.1478" stroke-miterlimit="10" stroke-linejoin="round" stroke-linecap="round" stroke="#000000" fill="none"/>
  <line id="svg_18" y2="-924.155" y1="-923.893" x2="142.301" x1="142.301" stroke-width="20.1478" stroke-miterlimit="10" stroke-linejoin="round" stroke-linecap="round" stroke="#000000" fill="none"/>
  <line id="svg_19" y2="-1012" y1="-1011.737" x2="267.161" x1="267.161" stroke-width="20.1478" stroke-miterlimit="10" stroke-linejoin="round" stroke-linecap="round" stroke="#000000" fill="none"/>
  <line id="svg_20" y2="-854.02" y1="-853.757" x2="335.723" x1="335.723" stroke-width="20.1478" stroke-miterlimit="10" stroke-linejoin="round" stroke-linecap="round" stroke="#000000" fill="none"/>
  <line id="svg_21" y2="-897.185" y1="-986.573" x2="244.793" x1="324.946" stroke-width="20.1478" stroke-miterlimit="10" stroke-linejoin="round" stroke-linecap="round" stroke="#000000" fill="none"/>
  <line id="svg_22" y2="-905.66" y1="-964.233" x2="52.915" x1="103.797" stroke-width="20.1478" stroke-miterlimit="10" stroke-linejoin="round" stroke-linecap="round" stroke="#000000" fill="none"/>
  <line id="svg_23" y2="-833.223" y1="-870.214" x2="452.108" x1="486.01" stroke-width="20.1478" stroke-miterlimit="10" stroke-linejoin="round" stroke-linecap="round" stroke="#000000" fill="none"/>
  <path id="svg_25" stroke-width="20.1764" stroke-miterlimit="10" stroke-linejoin="round" stroke-linecap="round" stroke="#000000" fill="none" d="m786.99,-771.838c22.682,0 41.177,-18.497 41.177,-41.179c0,-22.682 -18.496,-41.179 -41.177,-41.179c-22.683,0 -41.178,18.497 -41.178,41.179c0,22.682 18.495,41.179 41.178,41.179l0,0z"/>
  <path id="svg_26" stroke-width="20.1764" stroke-miterlimit="10" stroke-linejoin="round" stroke-linecap="round" stroke="#000000" fill="none" d="m624.682,-722.465c15.141,0 27.492,-12.351 27.492,-27.492s-12.351,-27.493 -27.492,-27.493c-15.17,0 -27.521,12.351 -27.521,27.493s12.351,27.492 27.521,27.492l0,0z"/>
  <path id="svg_27" stroke-width="20.1764" stroke-miterlimit="10" stroke-linejoin="round" stroke-linecap="round" stroke="#000000" fill="none" d="m704.307,-954.694c15.141,0 27.492,-12.351 27.492,-27.493c0,-15.142 -12.351,-27.492 -27.492,-27.492s-27.491,12.35 -27.491,27.492c-0.001,15.142 12.35,27.493 27.491,27.493l0,0z"/>
  <path id="svg_28" stroke-width="20.1764" stroke-miterlimit="10" stroke-linejoin="round" stroke-linecap="round" stroke="#000000" fill="none" d="m787.464,-896.949c132.855,0 240.536,38.507 240.536,86.04c0,47.503 -107.68,86.04 -240.536,86.04c-50.946,0 -98.18,-5.67 -137.072,-15.35c1.128,-3.027 1.781,-6.294 1.781,-9.737c0,-15.171 -12.32,-27.493 -27.492,-27.493c-12.499,0 -23.008,8.313 -26.393,19.684c-32.183,-14.607 -51.391,-33.073 -51.391,-53.144c0.001,-47.533 107.711,-86.04 240.567,-86.04l0,0z"/>
  <path id="svg_29" stroke-width="20.1764" stroke-miterlimit="10" stroke-linejoin="round" stroke-linecap="round" stroke="#000000" fill="none" d="m731.412,-977.614c40.525,12.647 90.877,57.359 130.48,120.449c56.765,90.375 70.006,184.222 29.6,209.577c-40.405,25.384 -119.199,-27.314 -175.934,-117.688c-53.588,-85.297 -68.372,-173.682 -35.893,-204.678c4.513,9.056 13.834,15.261 24.641,15.261c13.598,-0.001 24.909,-9.918 27.106,-22.921l0,0z"/>
  <path id="svg_31" stroke-width="20.1764" stroke-miterlimit="10" stroke-linejoin="round" stroke-linecap="round" stroke="#000000" fill="none" d="m1282.941,-657.173c77.058,0 139.925,-62.869 139.925,-139.928c0,-77.059 -62.867,-139.899 -139.925,-139.899c-77.057,0 -139.894,62.84 -139.894,139.899c0,77.059 62.837,139.928 139.894,139.928l0,0z"/>
  <path id="svg_32" stroke-width="20.1764" stroke-miterlimit="10" stroke-linejoin="round" stroke-linecap="round" stroke="#000000" fill="none" d="m1407.209,-863.231c89.13,7.609 152.321,26.617 152.321,48.856c0,8.284 -8.754,16.128 -24.384,23.091m-68.449,18.39c-40.364,6.846 -90.981,10.929 -145.946,10.929c-131.847,0 -238.751,-23.473 -238.751,-52.41c0,-14.689 27.585,-27.969 71.975,-37.487"/>
  <path id="svg_33" stroke-width="20.1764" stroke-miterlimit="10" stroke-linejoin="round" stroke-linecap="round" stroke="#000000" fill="none" d="m1501.187,-741.987c17.567,0 31.875,-14.308 31.875,-31.876c0,-17.539 -14.308,-31.875 -31.875,-31.875s-31.874,14.336 -31.874,31.875c0,17.568 14.306,31.876 31.874,31.876l0,0z"/>
  <path id="svg_34" stroke-width="20.1764" stroke-miterlimit="10" stroke-linejoin="round" stroke-linecap="round" stroke="#000000" fill="none" d="m1399.864,-722.01c-31.141,12.486 -74.854,20.271 -123.268,20.271c-38.955,0 -74.883,-5.023 -103.615,-13.514"/>
  <path id="svg_35" stroke-width="20.1764" stroke-miterlimit="10" stroke-linejoin="round" stroke-linecap="round" stroke="#000000" fill="none" d="m1419.048,-830.034c-31.259,15.688 -80.348,25.794 -135.549,25.794c-54.758,0 -103.496,-9.959 -134.782,-25.412"/>
  <path id="svg_36" stroke-width="20.1764" stroke-miterlimit="10" stroke-linejoin="round" stroke-linecap="round" stroke="#000000" fill="none" d="m1364.581,-908.65c-23.384,4.613 -49.883,7.257 -77.968,7.257c-30.522,0 -59.166,-3.114 -83.959,-8.52"/>
  <path id="svg_38" stroke-width="20.1478" stroke-miterlimit="10" stroke-linejoin="round" stroke-linecap="round" stroke="#000000" fill="none" d="m1853.394,-839.521c129.086,0 234.366,-20.577 234.366,-45.754c0,-25.206 -105.28,-45.754 -234.366,-45.754c-129.114,0 -234.394,20.548 -234.394,45.754c0,25.177 105.279,45.754 234.394,45.754l0,0z"/>
  <polygon id="svg_39" stroke-width="20.1478" stroke-miterlimit="10" stroke-linejoin="round" stroke-linecap="round" stroke="#000000" points="    1695.559,-578.799 1994.71,-578.799 1887.544,-785.507 1798.01,-785.507   " fill="none"/>
  <line id="svg_40" y2="-578.799" y1="-696.972" x2="1783.893" x1="1810.984" stroke-width="20.1478" stroke-miterlimit="10" stroke-linejoin="round" stroke-linecap="round" stroke="#000000" fill="none"/>
  <line id="svg_41" y2="-735.295" y1="-759.501" x2="1818.872" x1="1824.416" stroke-width="20.1478" stroke-miterlimit="10" stroke-linejoin="round" stroke-linecap="round" stroke="#000000" fill="none"/>
  <line id="svg_42" y2="-705.602" y1="-759.501" x2="1883.343" x1="1869.283" stroke-width="20.1478" stroke-miterlimit="10" stroke-linejoin="round" stroke-linecap="round" stroke="#000000" fill="none"/>
  <line id="svg_43" y2="-965.952" y1="-965.667" x2="1793.638" x1="1793.638" stroke-width="20.1478" stroke-miterlimit="10" stroke-linejoin="round" stroke-linecap="round" stroke="#000000" fill="none"/>
  <line id="svg_44" y2="-965.952" y1="-965.667" x2="1854.108" x1="1854.108" stroke-width="20.1478" stroke-miterlimit="10" stroke-linejoin="round" stroke-linecap="round" stroke="#000000" fill="none"/>
  <line id="svg_45" y2="-965.952" y1="-965.667" x2="1914.607" x1="1914.607" stroke-width="20.1478" stroke-miterlimit="10" stroke-linejoin="round" stroke-linecap="round" stroke="#000000" fill="none"/>
  <path id="svg_46" stroke-width="20.1478" stroke-miterlimit="10" stroke-linejoin="round" stroke-linecap="round" stroke="#000000" fill="none" d="m1751.199,-999.503l204.331,0l0,73.047c-30.864,-3.887 -65.528,-6.059 -102.137,-6.059c-36.636,0 -71.302,2.172 -102.194,6.059l0,-73.047z"/>
  <path id="svg_47" stroke-width="20.1478" stroke-miterlimit="10" stroke-linejoin="round" stroke-linecap="round" stroke="#000000" fill="none" d="m1853.565,-1044c30.949,0 57.612,18.205 69.9,44.497l-139.802,0c12.29,-26.292 38.982,-44.497 69.902,-44.497l0,0z"/>
  <line id="svg_48" y2="-957.293" y1="-957.293" x2="1980.25" x1="1957.56" stroke-width="20.1478" stroke-miterlimit="10" stroke-linejoin="round" stroke-linecap="round" stroke="#000000" fill="none"/>
  <line id="svg_49" y2="-957.293" y1="-957.293" x2="1751.543" x1="1728.852" stroke-width="20.1478" stroke-miterlimit="10" stroke-linejoin="round" stroke-linecap="round" stroke="#000000" fill="none"/>
  <line id="svg_50" y2="-885.275" y1="-885.275" x2="1916.693" x1="1790.065" stroke-width="20.1478" stroke-miterlimit="10" stroke-linejoin="round" stroke-linecap="round" stroke="#000000" fill="none"/>
  <line id="svg_51" y2="-669.737" y1="-678.825" x2="1891.802" x1="1889.431" stroke-width="20.1478" stroke-miterlimit="10" stroke-linejoin="round" stroke-linecap="round" stroke="#000000" fill="none"/>
  <path id="svg_53" stroke-width="20.1764" stroke-miterlimit="10" stroke-linejoin="round" stroke-linecap="round" stroke="#000000" fill="none" d="m2383.136,-628.278c30.578,0 55.556,-24.949 55.556,-55.557c0,-30.579 -24.978,-55.527 -55.556,-55.527c-30.606,0 -55.555,24.948 -55.555,55.527c0,30.608 24.948,55.557 55.555,55.557l0,0z"/>
  <path id="svg_54" stroke-width="20.1764" stroke-miterlimit="10" stroke-linejoin="round" stroke-linecap="round" stroke="#000000" fill="none" d="m2318.408,-1009l0,0c14.631,0 26.634,11.975 26.634,26.635l0,82.306l0.086,75.533c-0.058,16.204 45.724,14.861 45.724,0.257l-0.028,-75.79l37.637,0l0,-26.807c0,-12.403 10.146,-22.548 22.548,-22.548l0,0c12.403,0 22.548,10.146 22.548,22.548l0,28.55l0,0.114l0,29.979l0,180.273c0,50.498 -41.295,91.794 -91.792,91.794l0,0c-50.496,0 -91.819,-41.296 -91.819,-91.794l0,-210.251l-0.058,-84.364c-0.001,-14.632 13.887,-26.435 28.52,-26.435l0,0z"/>
  <line id="svg_55" y2="-768.883" y1="-817.553" x2="2434.947" x1="2434.947" stroke-width="20.1764" stroke-miterlimit="10" stroke-linejoin="round" stroke-linecap="round" stroke="#000000" fill="none"/>
  <line id="svg_56" y2="-707.383" y1="-784.516" x2="2392.71" x1="2392.71" stroke-width="20.1764" stroke-miterlimit="10" stroke-linejoin="round" stroke-linecap="round" stroke="#000000" fill="none"/>
  <line id="svg_57" y2="-705.525" y1="-784.516" x2="2331.496" x1="2331.496" stroke-width="20.1764" stroke-miterlimit="10" stroke-linejoin="round" stroke-linecap="round" stroke="#000000" fill="none"/>
  <line id="svg_58" y2="-850.618" y1="-866.536" x2="2434.947" x1="2434.947" stroke-width="20.1764" stroke-miterlimit="10" stroke-linejoin="round" stroke-linecap="round" stroke="#000000" fill="none"/>
  <line id="svg_59" y2="-695.894" y1="-695.609" x2="2359.816" x1="2359.816" stroke-width="20.1764" stroke-miterlimit="10" stroke-linejoin="round" stroke-linecap="round" stroke="#000000" fill="none"/>
  <path id="svg_60" stroke-width="20.1764" stroke-miterlimit="10" stroke-linejoin="round" stroke-linecap="round" stroke="#000000" fill="none" d="m2616.073,-852.762l0,158.839c0,23.749 -22.148,43.153 -49.24,43.153l0,0c-27.091,0 -49.239,-19.404 -49.239,-43.153l0,-139.949l0,-0.057l0,-65.645c0,-8.573 8.002,-15.604 17.805,-15.604l0,0c9.802,0 17.832,7.03 17.832,15.604l0,37.581c-0.028,0.314 -0.028,0.6 -0.028,0.915l0,65.645c0,8.573 7.001,15.604 15.604,15.604l0,0c8.573,0 15.604,-7.03 15.604,-15.604l0,-57.329c-0.031,-15.518 31.662,-15.404 31.662,0l0,0z"/>
  <path id="svg_61" stroke-width="20.1764" stroke-miterlimit="10" stroke-linejoin="round" stroke-linecap="round" stroke="#000000" fill="none" d="m2565.776,-683.492c9.859,0 17.89,-8.059 17.89,-17.918c0,-9.86 -8.03,-17.891 -17.89,-17.891s-17.919,8.03 -17.919,17.891c0,9.86 8.06,17.918 17.919,17.918l0,0z"/>
  <path id="svg_62" stroke-width="20.1764" stroke-miterlimit="10" stroke-linejoin="round" stroke-linecap="round" stroke="#000000" fill="none" d="m2245.135,-925.751l0,150.18c0,22.462 -20.977,40.81 -46.582,40.81l0,0c-25.605,0 -46.553,-18.348 -46.553,-40.81l0,-132.347l0,-0.057l0,-62.072c0,-8.117 7.572,-14.747 16.832,-14.747l0,0c9.26,0 16.861,6.63 16.861,14.747l0,35.551c-0.029,0.286 -0.029,0.572 -0.029,0.857l0,62.072c0,8.117 6.631,14.747 14.746,14.747l0,0c8.116,0 14.775,-6.63 14.775,-14.747l0,-54.185c-0.029,-14.717 29.95,-14.574 29.95,0.001l0,0z"/>
  <line id="svg_63" y2="-769.941" y1="-769.656" x2="2197.124" x1="2197.124" stroke-width="20.1764" stroke-miterlimit="10" stroke-linejoin="round" stroke-linecap="round" stroke="#000000" fill="none"/>
  <line id="svg_64" y2="-800.263" y1="-816.152" x2="2198.953" x1="2198.953" stroke-width="20.1764" stroke-miterlimit="10" stroke-linejoin="round" stroke-linecap="round" stroke="#000000" fill="none"/>
  <line id="svg_65" y2="-742.677" y1="-758.938" x2="2545.028" x1="2545.028" stroke-width="20.1764" stroke-miterlimit="10" stroke-linejoin="round" stroke-linecap="round" stroke="#000000" fill="none"/>
  <line id="svg_66" y2="-742.706" y1="-749.307" x2="2589.267" x1="2589.267" stroke-width="20.1764" stroke-miterlimit="10" stroke-linejoin="round" stroke-linecap="round" stroke="#000000" fill="none"/>
  <polygon id="svg_68" stroke-width="20.1478" stroke-miterlimit="10" stroke-linejoin="round" stroke-linecap="round" stroke="#000000" points="    2364.477,-321.009 2407.942,-247.963 2304.377,-186.319 2260.91,-259.394   " fill="none"/>
  <polygon id="svg_69" stroke-width="20.1478" stroke-miterlimit="10" stroke-linejoin="round" stroke-linecap="round" stroke="#000000" points="    2288.373,-404.715 2327.439,-339.042 2284.916,-313.75 2245.85,-379.395   " fill="none"/>
  <polygon id="svg_70" stroke-width="20.1478" stroke-miterlimit="10" stroke-linejoin="round" stroke-linecap="round" stroke="#000000" points="    2405.856,-207.267 2444.922,-141.594 2402.398,-116.302 2363.333,-181.946   " fill="none"/>
  <path id="svg_71" stroke-width="20.1478" stroke-miterlimit="10" stroke-linejoin="round" stroke-linecap="round" stroke="#000000" fill="none" d="m2428.404,-339.957l26.406,44.382c5.286,8.917 2.343,20.52 -6.545,25.835l0,0c-8.916,5.287 -20.519,2.343 -25.834,-6.573l-26.406,-44.382c-5.286,-8.888 -2.343,-20.52 6.545,-25.806l0,0c8.916,-5.316 20.519,-2.344 25.834,6.544l0,0z"/>
  <line id="svg_72" y2="-297.632" y1="-327.211" x2="2325.182" x1="2307.578" stroke-width="20.1478" stroke-miterlimit="10" stroke-linejoin="round" stroke-linecap="round" stroke="#000000" fill="none"/>
  <line id="svg_73" y2="-195.436" y1="-224.557" x2="2385.967" x1="2368.648" stroke-width="20.1478" stroke-miterlimit="10" stroke-linejoin="round" stroke-linecap="round" stroke="#000000" fill="none"/>
  <path id="svg_74" stroke-width="20.1478" stroke-miterlimit="10" stroke-linejoin="round" stroke-linecap="round" stroke="#000000" fill="none" d="m2370.791,-50c121.627,0 220.792,-99.195 220.792,-220.797c0,-121.63 -99.165,-220.797 -220.792,-220.797c-121.598,0 -220.791,99.167 -220.791,220.797c0,121.602 99.193,220.797 220.791,220.797l0,0z"/>
  <path id="svg_75" stroke-width="20.1478" stroke-miterlimit="10" stroke-linejoin="round" stroke-linecap="round" stroke="#000000" fill="none" d="m2539.286,-470.732c130.828,-74.104 88.505,26.378 -71.616,126.832"/>
  <line id="svg_77" y2="-159.532" y1="-159.131" x2="1809.014" x1="1719.622" stroke-width="20.1764" stroke-miterlimit="10" stroke-linejoin="round" stroke-linecap="round" stroke="#000000" fill="none"/>
  <line id="svg_78" y2="-230.435" y1="-170.934" x2="1898.005" x1="1841.764" stroke-width="20.1764" stroke-miterlimit="10" stroke-linejoin="round" stroke-linecap="round" stroke="#000000" fill="none"/>
  <path id="svg_79" stroke-width="20.1764" stroke-miterlimit="10" stroke-linejoin="round" stroke-linecap="round" stroke="#000000" fill="none" d="m1635.176,-233.121c10.002,0 18.146,-8.174 18.146,-18.177c0,-10.002 -8.145,-18.146 -18.146,-18.146c-10.03,0 -18.176,8.145 -18.176,18.146c0,10.004 8.146,18.177 18.176,18.177l0,0z"/>
  <line id="svg_80" y2="-268.816" y1="-400.276" x2="1909.836" x1="1922.781" stroke-width="20.1764" stroke-miterlimit="10" stroke-linejoin="round" stroke-linecap="round" stroke="#000000" fill="none"/>
  <line id="svg_81" y2="-262.1" y1="-347.664" x2="1924.782" x1="1988.311" stroke-width="20.1764" stroke-miterlimit="10" stroke-linejoin="round" stroke-linecap="round" stroke="#000000" fill="none"/>
  <line id="svg_82" y2="-246.095" y1="-261.328" x2="1929.469" x1="2049.209" stroke-width="20.1764" stroke-miterlimit="10" stroke-linejoin="round" stroke-linecap="round" stroke="#000000" fill="none"/>
  <line id="svg_83" y2="-181.537" y1="-233.321" x2="1683.386" x1="1645.949" stroke-width="20.1764" stroke-miterlimit="10" stroke-linejoin="round" stroke-linecap="round" stroke="#000000" fill="none"/>
  <path id="svg_84" stroke-width="20.1764" stroke-miterlimit="10" stroke-linejoin="round" stroke-linecap="round" stroke="#000000" fill="none" d="m1698.532,-146.757c10.031,0 18.176,-8.145 18.176,-18.176c0,-10.002 -8.145,-18.147 -18.176,-18.147c-10.002,0 -18.146,8.146 -18.146,18.147c0,10.031 8.144,18.176 18.146,18.176l0,0z"/>
  <path id="svg_85" stroke-width="20.1764" stroke-miterlimit="10" stroke-linejoin="round" stroke-linecap="round" stroke="#000000" fill="none" d="m1827.161,-141.927c10.002,0 18.175,-8.174 18.175,-18.176c0,-10.003 -8.173,-18.176 -18.175,-18.176c-10.003,0 -18.147,8.173 -18.147,18.176c0,10.002 8.144,18.176 18.147,18.176l0,0z"/>
  <path id="svg_86" stroke-width="20.1764" stroke-miterlimit="10" stroke-linejoin="round" stroke-linecap="round" stroke="#000000" fill="none" d="m1911.322,-227.919c10.002,0 18.146,-8.174 18.146,-18.176c0,-10.003 -8.145,-18.177 -18.146,-18.177c-10.003,0 -18.176,8.174 -18.176,18.177c0,10.002 8.173,18.176 18.176,18.176l0,0z"/>
  <path id="svg_87" stroke-width="20.1764" stroke-miterlimit="10" stroke-linejoin="round" stroke-linecap="round" stroke="#000000" fill="none" d="m2067.07,-247.21c10.002,0 18.176,-8.173 18.176,-18.176c0,-10.002 -8.174,-18.176 -18.176,-18.176s-18.146,8.174 -18.146,18.176c0,10.003 8.144,18.176 18.146,18.176l0,0z"/>
  <path id="svg_88" stroke-width="20.1764" stroke-miterlimit="10" stroke-linejoin="round" stroke-linecap="round" stroke="#000000" fill="none" d="m2001.398,-344.32c10.003,0 18.147,-8.173 18.147,-18.176s-8.145,-18.176 -18.147,-18.176c-10.03,0 -18.175,8.174 -18.175,18.176s8.145,18.176 18.175,18.176l0,0z"/>
  <path id="svg_89" stroke-width="20.1764" stroke-miterlimit="10" stroke-linejoin="round" stroke-linecap="round" stroke="#000000" fill="none" d="m1924.296,-400.677c10.002,0 18.147,-8.145 18.147,-18.147c0,-10.031 -8.146,-18.176 -18.147,-18.176s-18.175,8.145 -18.175,18.176c0,10.003 8.173,18.147 18.175,18.147l0,0z"/>
  <path id="svg_91" stroke-width="20.1764" stroke-miterlimit="10" stroke-linejoin="round" stroke-linecap="round" stroke="#000000" fill="none" d="m1319.754,-504c119.426,0 216.246,89.165 216.246,199.192c0,96.166 -101.707,259.864 -214.361,259.864c-111.081,0 -218.133,-163.841 -218.133,-259.864c0,-110.027 96.821,-199.192 216.248,-199.192l0,0z"/>
  <path id="svg_92" stroke-width="20.1764" stroke-miterlimit="10" stroke-linejoin="round" stroke-linecap="round" stroke="#000000" fill="none" d="m1246.566,-334.559c32.179,27.292 49.268,59.987 38.18,73.076c-11.089,13.06 -46.153,1.543 -78.331,-25.75c-32.15,-27.292 -49.24,-60.015 -38.18,-73.075c11.088,-13.088 46.152,-1.543 78.331,25.749l0,0z"/>
  <path id="svg_93" stroke-width="20.1764" stroke-miterlimit="10" stroke-linejoin="round" stroke-linecap="round" stroke="#000000" fill="none" d="m1387.91,-334.559c-32.178,27.292 -49.268,59.987 -38.18,73.076c11.09,13.06 46.154,1.543 78.303,-25.75c32.18,-27.292 49.27,-60.015 38.182,-73.075c-11.09,-13.088 -46.154,-1.543 -78.305,25.749l0,0z"/>
  <line id="svg_94" y2="-186.151" y1="-185.893" x2="1287.489" x1="1287.489" stroke-width="20.1764" stroke-miterlimit="10" stroke-linejoin="round" stroke-linecap="round" stroke="#000000" fill="none"/>
  <line id="svg_95" y2="-186.151" y1="-185.893" x2="1347.988" x1="1347.988" stroke-width="20.1764" stroke-miterlimit="10" stroke-linejoin="round" stroke-linecap="round" stroke="#000000" fill="none"/>
  <path id="svg_97" stroke-width="20.1764" stroke-miterlimit="10" stroke-linejoin="round" stroke-linecap="round" stroke="#000000" fill="none" d="m715.502,-420.989c39.38,9.459 82.647,26.006 125.885,49.298c126.284,67.96 204.673,167.584 175.124,222.512c-16.29,30.265 -61.928,40.639 -120.741,32.522m-65.528,-15.175c-30.864,-9.745 -63.385,-23.435 -95.907,-40.953c-126.256,-67.96 -204.673,-167.584 -175.096,-222.512c16.775,-31.151 64.671,-41.239 126.028,-31.722"/>
  <path id="svg_98" stroke-width="20.1764" stroke-miterlimit="10" stroke-linejoin="round" stroke-linecap="round" stroke="#000000" fill="none" d="m655.232,-302.417c-10.974,-15.976 -14.746,-30.179 -9.288,-40.324c14.604,-27.121 89.906,-14.975 168.208,27.149c26.406,14.204 49.754,30.007 68.559,45.754m21.233,19.72c22.747,23.806 33.121,45.84 25.491,59.986c-14.604,27.149 -89.906,15.003 -168.208,-27.15c-37.637,-20.262 -69.129,-43.782 -90.048,-65.759"/>
  <path id="svg_99" stroke-width="20.1764" stroke-miterlimit="10" stroke-linejoin="round" stroke-linecap="round" stroke="#000000" fill="none" d="m799.578,-288.528c12.231,6.573 16.804,21.777 10.23,33.98c-6.572,12.231 -21.805,16.775 -34.007,10.23c-12.203,-6.572 -16.775,-21.805 -10.202,-34.008c6.573,-12.202 21.776,-16.775 33.979,-10.202l0,0z"/>
  <line id="svg_100" y2="-122.858" y1="-122.688" x2="860.849" x1="860.763" stroke-width="20.1764" stroke-miterlimit="10" stroke-linejoin="round" stroke-linecap="round" stroke="#000000" fill="none"/>
  <path id="svg_102" stroke-width="20.1764" stroke-miterlimit="10" stroke-linejoin="round" stroke-linecap="round" stroke="#000000" fill="none" d="m258.187,-266.798c66.157,0 120.111,-53.956 120.111,-120.115c0,-66.131 -53.954,-120.087 -120.111,-120.087c-66.129,0 -120.084,53.956 -120.084,120.087c0,66.159 53.954,120.115 120.084,120.115l0,0z"/>
  <path id="svg_103" stroke-width="20.1764" stroke-miterlimit="10" stroke-linejoin="round" stroke-linecap="round" stroke="#000000" fill="none" d="m329.888,-290.547c-20.005,14.918 -44.81,23.749 -71.701,23.749c-26.863,0 -51.669,-8.83 -71.673,-23.749c21.376,-4.772 45.781,-7.516 71.702,-7.516c25.89,0 50.296,2.744 71.672,7.516l0,0z"/>
  <path id="svg_104" stroke-width="20.1764" stroke-miterlimit="10" stroke-linejoin="round" stroke-linecap="round" stroke="#000000" fill="none" d="m323.601,-432.153c10.06,13.546 16.003,30.322 16.003,48.469c0,15.375 -4.286,29.75 -11.688,42.011l-139.431,0c-7.43,-12.26 -11.688,-26.635 -11.688,-42.011c0,-18.147 5.944,-34.923 16.003,-48.469l130.801,0z"/>
  <path id="svg_105" stroke-width="20.1764" stroke-miterlimit="10" stroke-linejoin="round" stroke-linecap="round" stroke="#000000" fill="none" d="m212.719,-400.545c-5.287,6.944 -5.229,11.688 -1.657,20.062"/>
  <path id="svg_106" stroke-width="20.1764" stroke-miterlimit="10" stroke-linejoin="round" stroke-linecap="round" stroke="#000000" fill="none" d="m300.624,-499.284c-10.517,12.203 -26.12,19.948 -43.495,19.948c-17.09,0 -32.436,-7.488 -42.953,-19.348c13.632,-5.373 28.492,-8.316 44.01,-8.316c14.946,0 29.235,2.744 42.438,7.716l0,0z"/>
  <path id="svg_107" stroke-width="20.1764" stroke-miterlimit="10" stroke-linejoin="round" stroke-linecap="round" stroke="#000000" fill="none" d="m129.986,-344.045l16.004,0c6.715,17.633 17.518,33.265 31.207,45.783c-4.258,-3.858 -8.202,-8.031 -11.86,-12.489c-22.748,1.429 -43.667,9.831 -60.699,23.063l0,-31.007c0,-13.948 11.403,-25.35 25.348,-25.35l0,0zm47.211,45.811c1.086,0.972 2.201,1.943 3.315,2.915c-1.115,-0.972 -2.229,-1.944 -3.315,-2.915l0,0zm3.372,2.972c0.543,0.458 1.086,0.915 1.629,1.343c-0.543,-0.429 -1.086,-0.886 -1.629,-1.343l0,0zm1.686,1.4c1.115,0.915 2.258,1.8 3.401,2.687c-1.143,-0.887 -2.286,-1.772 -3.401,-2.687l0,0zm3.572,2.801c0.572,0.429 1.143,0.857 1.686,1.257c-0.543,-0.4 -1.114,-0.828 -1.686,-1.257l0,0zm1.715,1.286c0.6,0.429 1.2,0.857 1.8,1.286c-0.6,-0.428 -1.2,-0.857 -1.8,-1.286l0,0zm1.829,1.286c0.543,0.4 1.114,0.8 1.686,1.171c-0.572,-0.371 -1.143,-0.771 -1.686,-1.171l0,0zm1.915,1.343c1.172,0.772 2.372,1.543 3.572,2.287c-1.2,-0.744 -2.4,-1.515 -3.572,-2.287l0,0zm3.8,2.429c0.543,0.343 1.058,0.657 1.601,0.972c-0.543,-0.315 -1.058,-0.629 -1.601,-0.972l0,0zm1.887,1.143c1.2,0.715 2.4,1.4 3.629,2.086c-1.229,-0.685 -2.429,-1.371 -3.629,-2.086l0,0zm3.972,2.258c0.515,0.286 1.058,0.572 1.601,0.857c-0.544,-0.285 -1.087,-0.571 -1.601,-0.857l0,0zm1.857,1.001c0.629,0.314 1.258,0.657 1.886,0.972c-0.628,-0.315 -1.257,-0.658 -1.886,-0.972l0,0zm2.058,1.028c0.543,0.286 1.115,0.571 1.687,0.829c-0.572,-0.257 -1.144,-0.543 -1.687,-0.829l0,0zm2.086,1.029c0.571,0.257 1.143,0.543 1.715,0.8c-0.572,-0.257 -1.143,-0.542 -1.715,-0.8l0,0zm1.887,0.858c0.628,0.286 1.286,0.571 1.915,0.857c-0.63,-0.286 -1.287,-0.572 -1.915,-0.857l0,0zm2.257,1c0.543,0.229 1.058,0.457 1.601,0.657c-0.544,-0.2 -1.058,-0.428 -1.601,-0.657l0,0zm2.029,0.858c1.286,0.514 2.572,1 3.858,1.485c-1.286,-0.485 -2.572,-0.972 -3.858,-1.485l0,0zm4.344,1.657c0.514,0.171 1.029,0.371 1.543,0.543c-0.514,-0.172 -1.029,-0.372 -1.543,-0.543l0,0zm2,0.685c0.657,0.229 1.314,0.457 1.972,0.657c-0.657,-0.2 -1.314,-0.428 -1.972,-0.657l0,0zm2.172,0.715c0.6,0.2 1.171,0.371 1.772,0.543c-0.6,-0.172 -1.172,-0.343 -1.772,-0.543l0,0zm2.315,0.714c0.543,0.172 1.086,0.314 1.629,0.486c-0.543,-0.172 -1.086,-0.314 -1.629,-0.486l0,0zm2,0.572c0.658,0.2 1.315,0.371 2,0.543c-0.685,-0.172 -1.342,-0.343 -2,-0.543l0,0zm2.429,0.657c0.543,0.143 1.058,0.257 1.601,0.399c-0.543,-0.142 -1.058,-0.256 -1.601,-0.399l0,0zm2.172,0.543c0.6,0.143 1.2,0.285 1.801,0.399c-0.601,-0.113 -1.201,-0.256 -1.801,-0.399l0,0zm2.03,0.457c0.686,0.143 1.343,0.286 2.029,0.429c-0.686,-0.142 -1.344,-0.286 -2.029,-0.429l0,0zm2.571,0.515c0.543,0.114 1.058,0.2 1.572,0.314c-0.514,-0.114 -1.029,-0.2 -1.572,-0.314l0,0zm2.144,0.4c0.686,0.115 1.372,0.229 2.058,0.344c-0.687,-0.115 -1.373,-0.229 -2.058,-0.344l0,0zm2.229,0.372c0.628,0.114 1.257,0.2 1.886,0.286c-0.629,-0.086 -1.258,-0.172 -1.886,-0.286l0,0zm2.486,0.371c0.543,0.058 1.086,0.144 1.657,0.2c-0.571,-0.057 -1.114,-0.143 -1.657,-0.2l0,0zm2.143,0.258c0.686,0.086 1.372,0.171 2.086,0.229c-0.714,-0.059 -1.4,-0.144 -2.086,-0.229l0,0zm2.487,0.256c0.572,0.058 1.143,0.114 1.743,0.172c-0.6,-0.057 -1.172,-0.114 -1.743,-0.172l0,0zm2.343,0.201c0.6,0.057 1.2,0.086 1.8,0.143c-0.6,-0.057 -1.2,-0.087 -1.8,-0.143l0,0zm2.143,0.171c0.686,0.028 1.4,0.057 2.115,0.085c-0.714,-0.028 -1.429,-0.056 -2.115,-0.085l0,0zm2.686,0.115c0.543,0.028 1.086,0.028 1.629,0.057c-0.543,-0.029 -1.086,-0.029 -1.629,-0.057l0,0zm2.229,0.056c0.714,0 1.429,0.028 2.144,0.028c0.714,0 1.429,-0.028 2.143,-0.028c-0.714,0 -1.429,0.028 -2.143,0.028c-0.714,0.001 -1.429,-0.028 -2.144,-0.028l0,0zm4.916,0c0.543,-0.028 1.086,-0.028 1.629,-0.057c-0.543,0.029 -1.086,0.029 -1.629,0.057l0,0zm2.2,-0.086c0.715,-0.028 1.43,-0.057 2.115,-0.085c-0.685,0.029 -1.4,0.057 -2.115,0.085l0,0zm2.458,-0.114c0.601,-0.028 1.2,-0.086 1.801,-0.143c-0.601,0.057 -1.2,0.115 -1.801,0.143l0,0zm2.401,-0.171c0.571,-0.058 1.144,-0.114 1.743,-0.172c-0.6,0.058 -1.172,0.115 -1.743,0.172l0,0zm2.143,-0.2c0.686,-0.058 1.4,-0.143 2.086,-0.229c-0.685,0.086 -1.4,0.171 -2.086,0.229l0,0zm2.601,-0.286c0.543,-0.057 1.086,-0.143 1.629,-0.2c-0.543,0.057 -1.086,0.143 -1.629,0.2l0,0zm2.2,-0.285c0.657,-0.086 1.314,-0.2 1.972,-0.286c-0.658,0.086 -1.315,0.2 -1.972,0.286l0,0zm2.086,-0.315c0.687,-0.114 1.372,-0.229 2.058,-0.344c-0.686,0.116 -1.372,0.23 -2.058,0.344l0,0zm2.6,-0.428c0.515,-0.114 1.058,-0.2 1.601,-0.314c-0.543,0.113 -1.086,0.199 -1.601,0.314l0,0zm2.144,-0.401c0.687,-0.143 1.344,-0.286 2.029,-0.429c-0.685,0.143 -1.342,0.287 -2.029,0.429l0,0zm2.23,-0.486c0.6,-0.114 1.2,-0.257 1.829,-0.399c-0.629,0.142 -1.23,0.285 -1.829,0.399l0,0zm2.4,-0.543c0.543,-0.143 1.086,-0.257 1.629,-0.399c-0.543,0.142 -1.086,0.256 -1.629,0.399l0,0zm2.029,-0.514c0.657,-0.172 1.314,-0.343 2,-0.543c-0.685,0.2 -1.343,0.371 -2,0.543l0,0zm2.371,-0.629c0.543,-0.172 1.087,-0.314 1.63,-0.486c-0.543,0.172 -1.087,0.314 -1.63,0.486l0,0zm2.173,-0.629c0.6,-0.2 1.2,-0.371 1.8,-0.571c-0.6,0.2 -1.2,0.371 -1.8,0.571l0,0zm1.943,-0.628c0.687,-0.2 1.344,-0.429 2.001,-0.657c-0.658,0.228 -1.315,0.456 -2.001,0.657l0,0zm2.401,-0.8c0.543,-0.172 1.086,-0.372 1.6,-0.543c-0.514,0.171 -1.057,0.371 -1.6,0.543l0,0zm2.058,-0.715c1.314,-0.485 2.601,-0.972 3.886,-1.485c-1.286,0.513 -2.572,1 -3.886,1.485l0,0zm4.286,-1.657c0.571,-0.229 1.114,-0.457 1.657,-0.715c-0.543,0.258 -1.086,0.486 -1.657,0.715l0,0zm1.943,-0.829c0.657,-0.257 1.286,-0.543 1.943,-0.857c-0.657,0.314 -1.286,0.6 -1.943,0.857l0,0zm2.086,-0.915c0.572,-0.257 1.172,-0.543 1.772,-0.829c-0.6,0.287 -1.2,0.572 -1.772,0.829l0,0zm2.115,-0.971c0.6,-0.286 1.172,-0.572 1.771,-0.886c-0.599,0.314 -1.171,0.6 -1.771,0.886l0,0zm1.858,-0.915c0.657,-0.314 1.286,-0.657 1.915,-0.972c-0.629,0.315 -1.258,0.658 -1.915,0.972l0,0zm2.114,-1.086c0.572,-0.314 1.144,-0.6 1.715,-0.915c-0.572,0.315 -1.143,0.601 -1.715,0.915l0,0zm1.943,-1.057c1.258,-0.657 2.486,-1.372 3.716,-2.115c-1.229,0.743 -2.458,1.457 -3.716,2.115l0,0zm3.945,-2.229c0.543,-0.343 1.114,-0.686 1.686,-1.029c-0.572,0.343 -1.143,0.685 -1.686,1.029l0,0zm1.829,-1.115c1.229,-0.771 2.429,-1.543 3.629,-2.343c-1.201,0.8 -2.401,1.571 -3.629,2.343l0,0zm3.771,-2.458c1.801,-1.229 3.572,-2.486 5.315,-3.801c-1.743,1.315 -3.514,2.572 -5.315,3.801l0,0zm5.402,-3.858c17.747,-13.46 31.636,-31.75 39.723,-52.898l16.004,0c13.917,0 25.349,11.403 25.349,25.349l0,31.579c-16.976,-13.432 -37.923,-22.005 -60.728,-23.577c-6.003,7.287 -12.833,13.832 -20.348,19.547l0,0z"/>
  <path id="svg_108" stroke-width="20.1764" stroke-miterlimit="10" stroke-linejoin="round" stroke-linecap="round" stroke="#000000" fill="none" d="m351.035,-310.694c57.298,3.972 102.965,52.098 102.965,110.369l0,158.354l-392.314,0l0,-158.354c0,-58.5 46.01,-106.769 103.651,-110.427c22.034,26.835 55.441,43.953 92.85,43.953c37.408,0.001 70.815,-17.089 92.848,-43.895l0,0z"/>
  <path id="svg_109" stroke-width="20.1764" stroke-miterlimit="10" stroke-linejoin="round" stroke-linecap="round" stroke="#000000" fill="none" d="m61.686,-181.434l0,-18.891c0,-13.003 2.286,-25.521 6.458,-37.151l34.865,0l0,56.042l-41.323,0z"/>
  <rect id="svg_110" y="-186.978" x="174.11" width="168.123" stroke-width="20.1764" stroke-miterlimit="10" stroke-linejoin="round" stroke-linecap="round" stroke="#000000" height="89.394" fill="none"/>
  <line id="svg_111" y2="-156.085" y1="-156.085" x2="342.233" x1="174.11" stroke-width="20.1764" stroke-miterlimit="10" stroke-linejoin="round" stroke-linecap="round" stroke="#000000" fill="none"/>
  <line id="svg_112" y2="-133.623" y1="-133.394" x2="297.194" x1="297.194" stroke-width="20.1764" stroke-miterlimit="10" stroke-linejoin="round" stroke-linecap="round" stroke="#000000" fill="none"/>
  <line id="svg_113" y2="-129.393" y1="-129.393" x2="258.157" x1="174.11" stroke-width="20.1764" stroke-miterlimit="10" stroke-linejoin="round" stroke-linecap="round" stroke="#000000" fill="none"/>
  <line id="svg_114" y2="-46.258" y1="-149.398" x2="133.959" x1="133.959" stroke-width="20.1764" stroke-miterlimit="10" stroke-linejoin="round" stroke-linecap="round" stroke="#000000" fill="none"/>
  <line id="svg_115" y2="-44.943" y1="-149.398" x2="383.042" x1="383.042" stroke-width="20.1764" stroke-miterlimit="10" stroke-linejoin="round" stroke-linecap="round" stroke="#000000" fill="none"/>
  <path id="svg_117" stroke-width="20.1764" stroke-miterlimit="10" stroke-linejoin="round" stroke-linecap="round" stroke="#223342" fill="none" d="m255.763,481c123.228,0 223.764,-100.539 223.764,-223.769c0,-123.259 -100.536,-223.77 -223.764,-223.77c-123.255,0.001 -223.763,100.511 -223.763,223.77c0,123.23 100.508,223.769 223.763,223.769l0,0z"/>
  <path id="svg_118" stroke-width="20.1764" stroke-miterlimit="10" stroke-linejoin="round" stroke-linecap="round" stroke="#223342" fill="none" d="m412.254,97.306c41.495,40.61 67.272,97.252 67.272,159.925c0,0.942 -0.029,1.886 -0.058,2.857c-0.285,12.604 -2.429,33.694 -6.229,49.898c-0.2,0.886 -0.429,1.8 -0.657,2.686l0,0l-80.618,-16.518c16.946,46.183 10.06,71.646 -22.69,74.59c-34.607,-3.001 -69.187,-20.806 -103.794,-58.386c-16.747,40.267 -48.097,33.522 -50.269,77.019l10.546,89.623l-0.029,-0.028c-4.058,-0.543 -8.087,-1.2 -12.088,-1.943l-0.686,-0.144c-5.287,-1.028 -10.488,-2.229 -15.604,-3.601l-0.657,-0.2c-5.144,-1.4 -10.203,-2.972 -15.204,-4.715l-0.543,-0.2c-5.001,-1.772 -9.945,-3.744 -14.774,-5.858l-0.458,-0.2c-4.858,-2.115 -9.63,-4.43 -14.289,-6.888l-0.372,-0.2c-4.687,-2.486 -9.288,-5.144 -13.774,-7.944l-0.257,-0.172c-4.487,-2.829 -8.888,-5.802 -13.174,-8.945l-0.2,-0.143c-4.315,-3.144 -8.516,-6.459 -12.574,-9.917l-0.085,-0.057c-33.865,-28.75 -59.042,-67.417 -71.073,-111.514l-0.029,0l71.559,-62.358c47.553,-12.146 59.442,14.889 89.191,-9.717c16.632,-35.552 -0.714,-92.823 -38.923,-90.793l-58.384,16.204l-34.865,-34.894c3.943,-6.001 8.145,-11.832 12.631,-17.404l0.058,-0.086c1.314,-1.629 2.629,-3.229 3.972,-4.801l0.143,-0.171c0.886,-1.029 1.772,-2.058 2.687,-3.086l0.372,-0.429c1.2,-1.343 2.4,-2.687 3.629,-4.001c0.2,-0.2 0.372,-0.4 0.571,-0.6c0.857,-0.915 1.743,-1.829 2.601,-2.744c0.286,-0.286 0.543,-0.543 0.8,-0.8c1.029,-1.029 2.029,-2.058 3.058,-3.086c0.4,-0.372 0.8,-0.743 1.172,-1.143c0.829,-0.8 1.658,-1.572 2.486,-2.343c0.457,-0.429 0.886,-0.857 1.343,-1.257c0.771,-0.715 1.543,-1.429 2.314,-2.115c0.629,-0.571 1.286,-1.143 1.915,-1.686c0.743,-0.686 1.515,-1.314 2.257,-1.972c0.657,-0.543 1.286,-1.086 1.915,-1.629c0.628,-0.515 1.286,-1.058 1.915,-1.572c0.743,-0.629 1.515,-1.229 2.286,-1.829c0.686,-0.543 1.372,-1.086 2.058,-1.629c0.829,-0.658 1.686,-1.315 2.543,-1.943c0.486,-0.372 1,-0.743 1.486,-1.115c0.886,-0.657 1.772,-1.314 2.658,-1.943c0.601,-0.429 1.172,-0.829 1.772,-1.257c0.972,-0.686 1.943,-1.343 2.915,-2.029c0.457,-0.286 0.915,-0.6 1.343,-0.886c1,-0.686 2,-1.343 3,-1.972c0.514,-0.343 1.029,-0.657 1.543,-1c1.058,-0.686 2.144,-1.372 3.258,-2.029c0.4,-0.257 0.829,-0.514 1.229,-0.743c1.086,-0.657 2.201,-1.315 3.287,-1.943c0.429,-0.257 0.857,-0.515 1.286,-0.743c1.2,-0.686 2.429,-1.372 3.629,-2.058c0.371,-0.171 0.743,-0.372 1.086,-0.572c1.2,-0.628 2.4,-1.286 3.601,-1.886c0.372,-0.2 0.714,-0.371 1.057,-0.543c1.315,-0.686 2.629,-1.343 3.944,-1.972c0.343,-0.171 0.686,-0.314 1.029,-0.486c1.257,-0.6 2.543,-1.2 3.83,-1.8c0.286,-0.114 0.571,-0.257 0.886,-0.4c1.372,-0.628 2.772,-1.229 4.201,-1.829c0.314,-0.143 0.628,-0.286 0.972,-0.429c1.314,-0.543 2.658,-1.086 3.972,-1.6c0.286,-0.114 0.543,-0.229 0.829,-0.343c25.663,17.833 46.811,43.811 55.813,91.623c29.178,-3.258 50.468,-43.354 82.36,-21.348c34.12,19.029 68.814,-0.947 100.077,-21.838l0,0z"/>
  <path id="svg_120" stroke-width="20.1764" stroke-miterlimit="10" stroke-linejoin="round" stroke-linecap="round" stroke="#000000" fill="none" d="m790.5,84.109l0,0c77.218,0 140.402,63.187 140.402,140.435l0,108.913c0,13.718 -2,27.007 -5.715,39.581l9.059,2.144c31.149,7.373 50.583,38.924 43.181,70.046l0,0c-7.401,31.15 -38.923,50.584 -70.072,43.21l-47.896,-11.374c-8.573,-2.029 -16.261,-5.916 -22.719,-11.088c-14.518,5.115 -30.063,7.887 -46.239,7.887l0,0c-15.917,0 -31.207,-2.686 -45.495,-7.602c-6.401,5.03 -13.975,8.803 -22.405,10.803l-47.896,11.374c-31.15,7.374 -62.671,-12.06 -70.073,-43.21l0,0c-7.373,-31.122 12.06,-62.673 43.181,-70.046l8.059,-1.915c-3.772,-12.632 -5.801,-26.007 -5.801,-39.81l0,-108.913c-0.002,-77.248 63.183,-140.435 140.429,-140.435l0,0z"/>
  <path id="svg_121" stroke-width="20.1764" stroke-miterlimit="10" stroke-linejoin="round" stroke-linecap="round" stroke="#000000" fill="none" d="m791.585,304.563c34.979,0 63.5,-28.521 63.5,-63.501c0,-34.951 -28.521,-63.473 -63.5,-63.473c-34.95,0 -63.471,28.521 -63.471,63.473c0.001,34.98 28.521,63.501 63.471,63.501l0,0z"/>
  <path id="svg_122" stroke-width="20.1764" stroke-miterlimit="10" stroke-linejoin="round" stroke-linecap="round" stroke="#000000" fill="none" d="m791.585,267.526c14.575,0 26.463,-11.889 26.463,-26.464c0,-14.546 -11.888,-26.435 -26.463,-26.435c-14.574,0 -26.434,11.889 -26.434,26.435c0,14.575 11.86,26.464 26.434,26.464l0,0z"/>
  <path id="svg_123" stroke-width="20.1764" stroke-miterlimit="10" stroke-linejoin="round" stroke-linecap="round" stroke="#000000" fill="none" d="m719.284,161.271c47.925,-30.464 95.821,-28.292 143.746,0"/>
  <line id="svg_124" y2="121.604" y1="70.22" x2="691.078" x1="691.078" stroke-width="20.1764" stroke-miterlimit="10" stroke-linejoin="round" stroke-linecap="round" stroke="#000000" fill="none"/>
  <path id="svg_125" stroke-width="20.1764" stroke-miterlimit="10" stroke-linejoin="round" stroke-linecap="round" stroke="#000000" fill="none" d="m692.65,68.791c12.631,0 22.948,-10.288 22.948,-22.92c0,-12.631 -10.316,-22.92 -22.948,-22.92c-12.603,0 -22.919,10.289 -22.919,22.92c-0.001,12.632 10.316,22.92 22.919,22.92l0,0z"/>
  <line id="svg_126" y2="121.604" y1="70.22" x2="890.951" x1="890.951" stroke-width="20.1764" stroke-miterlimit="10" stroke-linejoin="round" stroke-linecap="round" stroke="#000000" fill="none"/>
  <path id="svg_127" stroke-width="20.1764" stroke-miterlimit="10" stroke-linejoin="round" stroke-linecap="round" stroke="#000000" fill="none" d="m892.522,68.791c12.632,0 22.948,-10.288 22.948,-22.92c0,-12.631 -10.316,-22.92 -22.948,-22.92c-12.603,0 -22.919,10.289 -22.919,22.92c0,12.632 10.316,22.92 22.919,22.92l0,0z"/>
  <path id="svg_128" stroke-width="20.1764" stroke-miterlimit="10" stroke-linejoin="round" stroke-linecap="round" stroke="#000000" fill="none" d="m846.626,342.087l0,1.743c0,31.465 -25.748,57.242 -57.212,57.242l0,0c-31.493,0 -57.241,-25.777 -57.241,-57.242l0,-1.743l114.453,0z"/>
  <path id="svg_130" stroke-width="20.1764" stroke-miterlimit="10" stroke-linejoin="round" stroke-linecap="round" stroke="#000000" fill="none" d="m1312.998,25l35.809,0c25.262,0 45.895,20.663 45.895,45.897l0,215.91l-2.457,-3.429l-43.953,0l0,52.813l-35.293,0c-0.6,0 -1.199,-0.028 -1.771,-0.057l0,-52.756l-43.953,0l-0.171,0.257l0,-212.738c-0.001,-25.234 20.66,-45.897 45.894,-45.897l0,0z"/>
  <path id="svg_131" stroke-width="20.1764" stroke-miterlimit="10" stroke-linejoin="round" stroke-linecap="round" stroke="#000000" fill="none" d="m1304.053,97.761l54.269,0c3.086,0 5.602,2.515 5.602,5.602l0,24.063c0,3.058 -2.516,5.602 -5.602,5.602l-54.269,0c-3.086,0 -5.601,-2.543 -5.601,-5.602l0,-24.063c0,-3.087 2.515,-5.602 5.601,-5.602l0,0z"/>
  <polygon id="svg_132" stroke-width="20.1764" stroke-miterlimit="10" stroke-linejoin="round" stroke-linecap="round" stroke="#000000" points="    1206.518,367.884 1267.274,283.378 1311.227,283.378 1311.227,367.884   " fill="none"/>
  <polygon id="svg_133" stroke-width="20.1764" stroke-miterlimit="10" stroke-linejoin="round" stroke-linecap="round" stroke="#000000" points="    1453,367.884 1392.244,283.378 1348.291,283.378 1348.291,367.884   " fill="none"/>
  <line id="svg_134" y2="246.769" y1="193.584" x2="1330.717" x1="1330.916" stroke-width="20.1764" stroke-miterlimit="10" stroke-linejoin="round" stroke-linecap="round" stroke="#000000" fill="none"/>
  <line id="svg_135" y2="462.994" y1="391.347" x2="1259.043" x1="1259.043" stroke-width="20.1764" stroke-miterlimit="10" stroke-linejoin="round" stroke-linecap="round" stroke="#000000" fill="none"/>
  <line id="svg_136" y2="449.276" y1="391.347" x2="1333.688" x1="1333.688" stroke-width="20.1764" stroke-miterlimit="10" stroke-linejoin="round" stroke-linecap="round" stroke="#000000" fill="none"/>
  <line id="svg_137" y2="491.916" y1="477.912" x2="1333.688" x1="1333.688" stroke-width="20.1764" stroke-miterlimit="10" stroke-linejoin="round" stroke-linecap="round" stroke="#000000" fill="none"/>
  <line id="svg_138" y2="462.994" y1="391.347" x2="1408.305" x1="1408.305" stroke-width="20.1764" stroke-miterlimit="10" stroke-linejoin="round" stroke-linecap="round" stroke="#000000" fill="none"/>
  <line id="svg_139" y2="399.378" y1="391.347" x2="1296.366" x1="1296.366" stroke-width="20.1764" stroke-miterlimit="10" stroke-linejoin="round" stroke-linecap="round" stroke="#000000" fill="none"/>
  <line id="svg_140" y2="480.426" y1="428.671" x2="1296.366" x1="1296.366" stroke-width="20.1764" stroke-miterlimit="10" stroke-linejoin="round" stroke-linecap="round" stroke="#000000" fill="none"/>
  <line id="svg_141" y2="159.919" y1="159.919" x2="1394.701" x1="1267.103" stroke-width="20.1764" stroke-miterlimit="10" stroke-linejoin="round" stroke-linecap="round" stroke="#000000" fill="none"/>
  <line id="svg_142" y2="399.378" y1="391.347" x2="1366.953" x1="1366.953" stroke-width="20.1764" stroke-miterlimit="10" stroke-linejoin="round" stroke-linecap="round" stroke="#000000" fill="none"/>
  <line id="svg_143" y2="480.426" y1="428.671" x2="1366.953" x1="1366.953" stroke-width="20.1764" stroke-miterlimit="10" stroke-linejoin="round" stroke-linecap="round" stroke="#000000" fill="none"/>
  <path id="svg_145" stroke-width="20.1478" stroke-miterlimit="10" stroke-linejoin="round" stroke-linecap="round" stroke="#000000" fill="none" d="m1970.128,22.896l0,0c8.001,-4.229 17.975,-1.143 22.204,6.859l44.41,84.049c4.201,7.974 1.114,17.976 -6.858,22.206l0,0c-8.002,4.201 -17.976,1.143 -22.205,-6.859l-44.41,-84.049c-4.201,-8.002 -1.115,-17.976 6.859,-22.206l0,0z"/>
  <polygon id="svg_146" stroke-width="20.1478" stroke-miterlimit="10" stroke-linejoin="round" stroke-linecap="round" stroke="#000000" points="    1720.673,193.824 1963.269,45.102 2007.679,129.151 1748.078,245.723   " fill="none"/>
  <path id="svg_147" stroke-width="20.1478" stroke-miterlimit="10" stroke-linejoin="round" stroke-linecap="round" stroke="#000000" fill="none" d="m1689.523,224.718l37.094,-19.605l16.604,31.408l-37.123,19.605c-0.027,-0.114 -0.085,-0.2 -0.143,-0.286l-16.432,-31.122z"/>
  <path id="svg_148" stroke-width="20.1478" stroke-miterlimit="10" stroke-linejoin="round" stroke-linecap="round" stroke="#000000" fill="none" d="m1670.49,218.859l0,0c6.859,-3.629 15.403,-1 19.033,5.859l16.432,31.122c3.629,6.859 1,15.433 -5.858,19.033l0,0c-6.858,3.63 -15.403,0.972 -19.032,-5.858l-16.433,-31.15c-3.63,-6.831 -1,-15.405 5.858,-19.006l0,0z"/>
  <rect id="svg_149" y="242.036" x="1844.1" width="61.699" stroke-width="20.1478" stroke-miterlimit="10" stroke-linejoin="round" stroke-linecap="round" stroke="#000000" height="34.551" fill="none"/>
  <polyline id="svg_150" stroke-width="20.1478" stroke-miterlimit="10" stroke-linejoin="round" stroke-linecap="round" stroke="#000000" points="    1819.408,488.811 1874.936,276.587 1926.775,490.041   " fill="none"/>
  <line id="svg_151" y2="287.047" y1="494.356" x2="1874.649" x1="1874.649" stroke-width="20.1478" stroke-miterlimit="10" stroke-linejoin="round" stroke-linecap="round" stroke="#000000" fill="none"/>
  <line id="svg_152" y2="194.91" y1="237.435" x2="1874.649" x1="1874.649" stroke-width="20.1478" stroke-miterlimit="10" stroke-linejoin="round" stroke-linecap="round" stroke="#000000" fill="none"/>
  <path id="svg_154" stroke-width="20.1478" stroke-miterlimit="10" stroke-linejoin="round" stroke-linecap="round" stroke="#000000" fill="none" d="m2385.079,163.991c71.759,0 129.914,58.157 129.914,129.889c0,40.725 -18.747,77.048 -48.039,100.854c14.089,-17.347 22.548,-39.467 22.548,-63.559c0,-55.671 -45.124,-100.825 -100.793,-100.825c-55.698,0 -100.822,45.154 -100.822,100.825c0,31.122 14.117,58.957 36.265,77.448c-41.009,-21.834 -68.957,-65.017 -68.957,-114.743c-0.001,-71.732 58.154,-129.889 129.884,-129.889l0,0z"/>
  <path id="svg_155" stroke-width="20.1478" stroke-miterlimit="10" stroke-linejoin="round" stroke-linecap="round" stroke="#000000" fill="none" d="m2388.709,432c55.526,0 100.793,-45.297 100.793,-100.825c0,-55.527 -45.267,-100.825 -100.793,-100.825s-100.822,45.297 -100.822,100.825c0,55.528 45.296,100.825 100.822,100.825l0,0z"/>
  <line id="svg_156" y2="307.684" y1="254.642" x2="2486.759" x1="2335.011" stroke-width="20.1478" stroke-miterlimit="10" stroke-linejoin="round" stroke-linecap="round" stroke="#000000" fill="none"/>
  <line id="svg_157" y2="355.409" y1="290.137" x2="2486.587" x1="2296.574" stroke-width="20.1478" stroke-miterlimit="10" stroke-linejoin="round" stroke-linecap="round" stroke="#000000" fill="none"/>
  <line id="svg_158" y2="405.765" y1="347.293" x2="2456.523" x1="2289.173" stroke-width="20.1478" stroke-miterlimit="10" stroke-linejoin="round" stroke-linecap="round" stroke="#000000" fill="none"/>
  <line id="svg_159" y2="286.106" y1="286.106" x2="2153" x1="2212.527" stroke-width="20.1478" stroke-miterlimit="10" stroke-linejoin="round" stroke-linecap="round" stroke="#000000" fill="none"/>
  <line id="svg_160" y2="127.067" y1="71.14" x2="2385.107" x1="2385.107" stroke-width="20.1478" stroke-miterlimit="10" stroke-linejoin="round" stroke-linecap="round" stroke="#000000" fill="none"/>
  <line id="svg_161" y2="286.335" y1="286.335" x2="2555.146" x1="2614.701" stroke-width="20.1478" stroke-miterlimit="10" stroke-linejoin="round" stroke-linecap="round" stroke="#000000" fill="none"/>
  <line id="svg_162" y2="149.13" y1="182.596" x2="2209.784" x1="2259.022" stroke-width="20.1478" stroke-miterlimit="10" stroke-linejoin="round" stroke-linecap="round" stroke="#000000" fill="none"/>
  <line id="svg_163" y2="149.13" y1="182.596" x2="2559.718" x1="2510.479" stroke-width="20.1478" stroke-miterlimit="10" stroke-linejoin="round" stroke-linecap="round" stroke="#000000" fill="none"/>
 </g>
</svg>