<svg width="49.99999999999999" height="38.00000000000001" xmlns="http://www.w3.org/2000/svg">

 <g>
  <title>background</title>
  <rect fill="none" id="canvas_background" height="40" width="52" y="-1" x="-1"/>
 </g>
 <g>
  <title>Layer 1</title>
  <path stroke="null" fill="#ffffff" id="svg_1" d="m9,9.679251l-8,0l0,22.421398c0,1.994058 2.243,3.616354 5,3.616354l38,0c2.757,0 5,-1.622297 5,-3.616354l0,-31.100648l-40,0l0,8.679251zm-6,22.421398l0,-20.974856l6,0l0,20.974856c0,1.19629 -1.346,2.169813 -3,2.169813s-3,-0.973523 -3,-2.169813zm8,-29.654107l36,0l0,29.654107c0,1.19629 -1.346,2.169813 -3,2.169813l-34.002,0c0.03,-0.028208 0.051,-0.060755 0.079,-0.089686c0.057,-0.058585 0.107,-0.120063 0.159,-0.181541c0.106,-0.122956 0.202,-0.249528 0.287,-0.381887c0.045,-0.069434 0.088,-0.139591 0.126,-0.211195c0.075,-0.140315 0.135,-0.284245 0.186,-0.432516c0.023,-0.067987 0.052,-0.133082 0.07,-0.202516c0.058,-0.217705 0.095,-0.440472 0.095,-0.670472l0,-22.421398l0,-7.232709z"/>
  <rect fill="#ffffff" id="svg_4" y="7.717003" x="31" width="12" height="2"/>
  <rect fill="#ffffff" id="svg_5" y="12.717003" x="31" width="12" height="2"/>
  <path fill="#ffffff" id="svg_6" d="m27,7.717003l-12,0l0,12l12,0l0,-12zm-2,10l-8,0l0,-8l8,0l0,8z"/>
  <rect fill="#ffffff" id="svg_7" y="17.717003" x="31" width="12" height="2"/>
  <rect fill="#ffffff" id="svg_8" y="22.717003" x="15" width="12" height="2"/>
  <rect fill="#ffffff" id="svg_9" y="22.717003" x="31" width="12" height="2"/>
  <rect fill="#ffffff" id="svg_10" y="27.717003" x="15" width="12" height="2"/>
  <rect fill="#ffffff" id="svg_11" y="27.717003" x="31" width="12" height="2"/>
 </g>
</svg>