<svg width="50" height="50" xmlns="http://www.w3.org/2000/svg">

 <g>
  <title>background</title>
  <rect fill="none" id="canvas_background" height="402" width="582" y="-1" x="-1"/>
 </g>
 <g>
  <title>Layer 1</title>
  <rect stroke="null" id="svg_1" width="50" height="50" fill="none"/>
  <path stroke="#ffffff" id="svg_2" stroke-width="2" stroke-miterlimit="10" stroke-linecap="round" fill="none" d="m46.271857,27.998903l0,-5.209508l-6.403058,-1.013249c-0.379288,-1.468213 -0.974671,-2.848733 -1.759249,-4.112907l3.731904,-5.150467l-3.804534,-3.682254l-5.250848,3.655338c-1.309125,-0.767534 -2.743784,-1.352736 -4.270798,-1.720874l-1.116343,-6.169794l-5.379968,0l-1.03654,6.149825c-1.527911,0.362929 -2.970639,0.940316 -4.283351,1.704377l-5.235605,-3.622345l-3.804534,3.682254l3.682588,5.100109c-0.796235,1.27633 -1.401482,2.67161 -1.786149,4.160661l-6.323255,1.019327l0,5.209508l6.316082,1.084446c0.381081,1.485578 0.987224,2.880858 1.786149,4.158924l-3.732801,5.055828l3.80274,3.685727l5.273265,-3.576327c1.316299,0.765798 2.75544,1.347526 4.283351,1.71306l1.05806,6.153298l5.379968,0l1.13069,-6.168926c1.519841,-0.373348 2.956292,-0.959418 4.260038,-1.72782l5.310028,3.607585l3.803637,-3.685727l-3.790187,-5.096636c0.784579,-1.264174 1.379962,-2.64643 1.755663,-4.114643l6.403058,-1.088787zm-21.519871,4.381197c-3.96145,0 -7.17329,-3.110076 -7.17329,-6.946011s3.211841,-6.946011 7.17329,-6.946011s7.17329,3.110076 7.17329,6.946011s-3.211841,6.946011 -7.17329,6.946011z"/>
 </g>
</svg>